<svg width="101" height="24" viewBox="0 0 101 24" fill="none" xmlns="http://www.w3.org/2000/svg">
<path fill-rule="evenodd" clip-rule="evenodd" d="M5.66664 3H19.6666C20.7712 3 21.6666 3.89543 21.6666 5V19C21.6666 20.1046 20.7712 21 19.6666 21H5.66664C4.56207 21 3.66664 20.1046 3.66664 19V5C3.66664 3.89543 4.56207 3 5.66664 3ZM8.66664 18C8.94278 18 9.16664 17.7761 9.16664 17.5V10.5C9.16664 10.2239 8.94278 10 8.66664 10H7.16664C6.8905 10 6.66664 10.2239 6.66664 10.5V17.5C6.66664 17.7761 6.8905 18 7.16664 18H8.66664ZM7.91664 9C7.08821 9 6.41664 8.32843 6.41664 7.5C6.41664 6.67157 7.08821 6 7.91664 6C8.74507 6 9.41664 6.67157 9.41664 7.5C9.41664 8.32843 8.74507 9 7.91664 9ZM18.1666 18C18.4427 18 18.6666 17.7761 18.6666 17.5V12.9C18.6991 11.3108 17.5242 9.95452 15.9466 9.76C14.8436 9.65925 13.7749 10.1744 13.1666 11.1V10.5C13.1666 10.2239 12.9427 10 12.6666 10H11.1666C10.8905 10 10.6666 10.2239 10.6666 10.5V17.5C10.6666 17.7761 10.8905 18 11.1666 18H12.6666C12.9427 18 13.1666 17.7761 13.1666 17.5V13.75C13.1666 12.9216 13.8382 12.25 14.6666 12.25C15.495 12.25 16.1666 12.9216 16.1666 13.75V17.5C16.1666 17.7761 16.3905 18 16.6666 18H18.1666Z" fill="black"/>
<path d="M59.6394 6.7174C59.175 7.33692 58.6136 7.87733 57.9769 8.31776C57.9769 8.47959 57.9769 8.64142 57.9769 8.81225C57.982 11.7511 56.8081 14.5691 54.7184 16.6345C52.6286 18.6999 49.7978 19.8399 46.8607 19.7989C45.1626 19.8046 43.4863 19.4169 41.9631 18.6661C41.8809 18.6302 41.828 18.549 41.8283 18.4593V18.3604C41.8283 18.2313 41.9329 18.1267 42.0619 18.1267C43.7311 18.0716 45.3407 17.4929 46.663 16.4724C45.1522 16.4419 43.7928 15.5469 43.1672 14.1707C43.1357 14.0956 43.1455 14.0093 43.1932 13.9432C43.2409 13.8771 43.3196 13.8407 43.4009 13.8471C43.8601 13.8932 44.3238 13.8505 44.7668 13.7212C43.099 13.375 41.8459 11.9904 41.6665 10.2957C41.6601 10.2144 41.6966 10.1357 41.7626 10.0879C41.8287 10.0402 41.9149 10.0303 41.99 10.062C42.4376 10.2595 42.9207 10.3635 43.4099 10.3676C41.9485 9.40846 41.3173 7.58405 41.8732 5.92622C41.9306 5.76513 42.0685 5.64612 42.2361 5.61294C42.4038 5.57975 42.5766 5.63728 42.691 5.76439C44.663 7.86325 47.3727 9.11396 50.2485 9.25279C50.1749 8.95885 50.1387 8.65676 50.1407 8.35372C50.1676 6.76472 51.1508 5.34921 52.63 4.76987C54.1091 4.19054 55.7915 4.56203 56.8896 5.71044C57.638 5.56785 58.3616 5.31645 59.0373 4.96421C59.0868 4.93331 59.1496 4.93331 59.1991 4.96421C59.23 5.01373 59.23 5.07652 59.1991 5.12604C58.8718 5.87552 58.3189 6.50412 57.6175 6.92419C58.2317 6.85296 58.8351 6.70807 59.4148 6.49264C59.4636 6.45942 59.5277 6.45942 59.5765 6.49264C59.6174 6.51134 59.648 6.54711 59.6601 6.59042C59.6722 6.63373 59.6646 6.68018 59.6394 6.7174Z" fill="black"/>
<path fill-rule="evenodd" clip-rule="evenodd" d="M88.6666 3C83.6981 3 79.6666 7.03145 79.6666 12C79.6666 16.9686 83.6981 21 88.6666 21C93.6254 21 97.6666 16.9686 97.6666 12C97.6666 7.03145 93.6254 3 88.6666 3ZM94.6113 7.14859C95.685 8.45662 96.3293 10.1258 96.3488 11.9317C96.095 11.8829 93.557 11.3655 90.9996 11.6876C90.941 11.5607 90.8922 11.4241 90.8336 11.2874C90.6774 10.9165 90.5018 10.5358 90.326 10.1746C93.1568 9.0228 94.4453 7.36334 94.6113 7.14859ZM88.6666 4.32755C90.6189 4.32755 92.4052 5.05966 93.7621 6.26031C93.6254 6.45553 92.4638 8.00759 89.7306 9.03253C88.4714 6.71909 87.0755 4.82538 86.8608 4.53254C87.4366 4.39588 88.0419 4.32755 88.6666 4.32755ZM85.3966 5.04989C85.6016 5.32321 86.9681 7.22668 88.2469 9.49131C84.6547 10.448 81.4823 10.4284 81.1406 10.4284C81.6384 8.04664 83.2491 6.06507 85.3966 5.04989ZM80.9747 12.0098C80.9747 11.9317 80.9747 11.8536 80.9747 11.7755C81.3066 11.7852 85.0354 11.8341 88.8716 10.6822C89.0961 11.1117 89.3011 11.551 89.4963 11.9902C89.3987 12.0195 89.2913 12.0488 89.1937 12.0781C85.2306 13.3568 83.1222 16.8514 82.9465 17.1442C81.7263 15.7874 80.9747 13.9816 80.9747 12.0098ZM88.6666 19.692C86.89 19.692 85.2502 19.0868 83.9519 18.0716C84.0886 17.7885 85.6504 14.782 89.9844 13.269C90.0039 13.2592 90.0137 13.2592 90.0332 13.2495C91.1167 16.051 91.556 18.4034 91.6731 19.077C90.7458 19.4772 89.7306 19.692 88.6666 19.692ZM92.9518 18.3742C92.8738 17.9056 92.4638 15.6605 91.4583 12.898C93.8694 12.5173 95.9779 13.1421 96.2415 13.23C95.9096 15.3677 94.6796 17.2126 92.9518 18.3742Z" fill="black"/>
</svg>
